<svg width="1052" height="562.1739130434783" viewBox="0 0 1052 562.1739130434783" xmlns="http://www.w3.org/2000/svg"><rect width="1052" height="562.1739130434783" fill="#fff"></rect><g class="graphicObject16"><g class="graphicObject13"><g class="graphicObject12"><rect width="40" height="200" transform="matrix(1 0 0 -1 50 502.17391304347825) translate(0,0) rotate(0)" fill="#c9b037" stroke="none" stroke-width="0" opacity="1" class="graphicObject11"></rect><rect width="40" height="126.08695652173914" transform="matrix(1 0 0 -1 50 502.17391304347825) translate(0,200) rotate(0)" fill="#d7d7d7" stroke="none" stroke-width="0" opacity="1" class="graphicObject11"></rect><rect width="40" height="126.08695652173914" transform="matrix(1 0 0 -1 50 502.17391304347825) translate(0,326.0869565217391) rotate(0)" fill="#ad8a56" stroke="none" stroke-width="0" opacity="1" class="graphicObject11"></rect></g><g class="graphicObject12"><rect width="40" height="165.2173913043478" transform="matrix(0.9999999999999999 0 0 -0.9999999999999998 98 502.17391304347825) translate(0,0) rotate(0)" fill="#c9b037" stroke="none" stroke-width="0" opacity="1" class="graphicObject11"></rect><rect width="40" height="117.3913043478261" transform="matrix(0.9999999999999999 0 0 -0.9999999999999998 98 502.17391304347825) translate(0,165.2173913043478) rotate(0)" fill="#d7d7d7" stroke="none" stroke-width="0" opacity="1" class="graphicObject11"></rect><rect width="40" height="100" transform="matrix(0.9999999999999999 0 0 -0.9999999999999998 98 502.17391304347825) translate(0,282.6086956521739) rotate(0)" fill="#ad8a56" stroke="none" stroke-width="0" opacity="1" class="graphicObject11"></rect></g><g class="graphicObject12"><rect width="40" height="104.34782608695652" transform="matrix(1 0 0 -0.9999999999999999 146 502.17391304347825) translate(0,0) rotate(0)" fill="#c9b037" stroke="none" stroke-width="0" opacity="1" class="graphicObject11"></rect><rect width="40" height="113.04347826086956" transform="matrix(1 0 0 -0.9999999999999999 146 502.17391304347825) translate(0,104.34782608695652) rotate(0)" fill="#d7d7d7" stroke="none" stroke-width="0" opacity="1" class="graphicObject11"></rect><rect width="40" height="139.1304347826087" transform="matrix(1 0 0 -0.9999999999999999 146 502.17391304347825) translate(0,217.39130434782606) rotate(0)" fill="#ad8a56" stroke="none" stroke-width="0" opacity="1" class="graphicObject11"></rect></g><g class="graphicObject12"><rect width="40" height="126.08695652173914" transform="matrix(0.9999999999999999 0 0 -0.9999999999999998 194 502.17391304347825) translate(0,0) rotate(0)" fill="#c9b037" stroke="none" stroke-width="0" opacity="1" class="graphicObject11"></rect><rect width="40" height="73.91304347826086" transform="matrix(0.9999999999999999 0 0 -0.9999999999999998 194 502.17391304347825) translate(0,126.08695652173914) rotate(0)" fill="#d7d7d7" stroke="none" stroke-width="0" opacity="1" class="graphicObject11"></rect><rect width="40" height="82.6086956521739" transform="matrix(0.9999999999999999 0 0 -0.9999999999999998 194 502.17391304347825) translate(0,200) rotate(0)" fill="#ad8a56" stroke="none" stroke-width="0" opacity="1" class="graphicObject11"></rect></g><g class="graphicObject12"><rect width="40" height="47.82608695652174" transform="matrix(0.9999999999999999 0 0 -0.9999999999999999 242 502.17391304347825) translate(0,0) rotate(0)" fill="#c9b037" stroke="none" stroke-width="0" opacity="1" class="graphicObject11"></rect><rect width="40" height="82.6086956521739" transform="matrix(0.9999999999999999 0 0 -0.9999999999999999 242 502.17391304347825) translate(0,47.82608695652174) rotate(0)" fill="#d7d7d7" stroke="none" stroke-width="0" opacity="1" class="graphicObject11"></rect><rect width="40" height="60.86956521739131" transform="matrix(0.9999999999999999 0 0 -0.9999999999999999 242 502.17391304347825) translate(0,130.43478260869566) rotate(0)" fill="#ad8a56" stroke="none" stroke-width="0" opacity="1" class="graphicObject11"></rect></g><g class="graphicObject12"><rect width="40" height="30.434782608695656" transform="matrix(1 0 0 -0.9999999999999999 290 502.17391304347825) translate(0,0) rotate(0)" fill="#c9b037" stroke="none" stroke-width="0" opacity="1" class="graphicObject11"></rect><rect width="40" height="60.86956521739131" transform="matrix(1 0 0 -0.9999999999999999 290 502.17391304347825) translate(0,30.434782608695656) rotate(0)" fill="#d7d7d7" stroke="none" stroke-width="0" opacity="1" class="graphicObject11"></rect><rect width="40" height="73.91304347826086" transform="matrix(1 0 0 -0.9999999999999999 290 502.17391304347825) translate(0,91.30434782608697) rotate(0)" fill="#ad8a56" stroke="none" stroke-width="0" opacity="1" class="graphicObject11"></rect></g><g class="graphicObject12"><rect width="40" height="47.82608695652174" transform="matrix(1 0 0 -0.9999999999999999 338 502.17391304347825) translate(0,0) rotate(0)" fill="#c9b037" stroke="none" stroke-width="0" opacity="1" class="graphicObject11"></rect><rect width="40" height="47.82608695652174" transform="matrix(1 0 0 -0.9999999999999999 338 502.17391304347825) translate(0,47.82608695652174) rotate(0)" fill="#d7d7d7" stroke="none" stroke-width="0" opacity="1" class="graphicObject11"></rect><rect width="40" height="52.17391304347826" transform="matrix(1 0 0 -0.9999999999999999 338 502.17391304347825) translate(0,95.65217391304348) rotate(0)" fill="#ad8a56" stroke="none" stroke-width="0" opacity="1" class="graphicObject11"></rect></g><g class="graphicObject12"><rect width="40" height="34.78260869565217" transform="matrix(1 0 0 -0.9999999999999999 386 502.17391304347825) translate(0,0) rotate(0)" fill="#c9b037" stroke="none" stroke-width="0" opacity="1" class="graphicObject11"></rect><rect width="40" height="39.130434782608695" transform="matrix(1 0 0 -0.9999999999999999 386 502.17391304347825) translate(0,34.78260869565217) rotate(0)" fill="#d7d7d7" stroke="none" stroke-width="0" opacity="1" class="graphicObject11"></rect><rect width="40" height="47.82608695652174" transform="matrix(1 0 0 -0.9999999999999999 386 502.17391304347825) translate(0,73.91304347826087) rotate(0)" fill="#ad8a56" stroke="none" stroke-width="0" opacity="1" class="graphicObject11"></rect></g><g class="graphicObject12"><rect width="40" height="13.043478260869565" transform="matrix(1 0 0 -0.9999999999999999 434 502.17391304347825) translate(0,0) rotate(0)" fill="#c9b037" stroke="none" stroke-width="0" opacity="1" class="graphicObject11"></rect><rect width="40" height="21.73913043478261" transform="matrix(1 0 0 -0.9999999999999999 434 502.17391304347825) translate(0,13.043478260869565) rotate(0)" fill="#d7d7d7" stroke="none" stroke-width="0" opacity="1" class="graphicObject11"></rect><rect width="40" height="39.130434782608695" transform="matrix(1 0 0 -0.9999999999999999 434 502.17391304347825) translate(0,34.78260869565217) rotate(0)" fill="#ad8a56" stroke="none" stroke-width="0" opacity="1" class="graphicObject11"></rect></g><g class="graphicObject12"><rect width="40" height="0" transform="matrix(0.9999999999999999 0 0 -0.9999999999999998 482 502.17391304347825) translate(0,0) rotate(0)" fill="#c9b037" stroke="none" stroke-width="0" opacity="1" class="graphicObject11"></rect><rect width="40" height="8.695652173913043" transform="matrix(0.9999999999999999 0 0 -0.9999999999999998 482 502.17391304347825) translate(0,0) rotate(0)" fill="#d7d7d7" stroke="none" stroke-width="0" opacity="1" class="graphicObject11"></rect><rect width="40" height="17.391304347826086" transform="matrix(0.9999999999999999 0 0 -0.9999999999999998 482 502.17391304347825) translate(0,8.695652173913043) rotate(0)" fill="#ad8a56" stroke="none" stroke-width="0" opacity="1" class="graphicObject11"></rect></g><g class="graphicObject12"><rect width="40" height="17.391304347826086" transform="matrix(0.9999999999999999 0 0 -0.9999999999999998 530 502.17391304347825) translate(0,0) rotate(0)" fill="#c9b037" stroke="none" stroke-width="0" opacity="1" class="graphicObject11"></rect><rect width="40" height="17.391304347826086" transform="matrix(0.9999999999999999 0 0 -0.9999999999999998 530 502.17391304347825) translate(0,17.391304347826086) rotate(0)" fill="#d7d7d7" stroke="none" stroke-width="0" opacity="1" class="graphicObject11"></rect><rect width="40" height="17.391304347826086" transform="matrix(0.9999999999999999 0 0 -0.9999999999999998 530 502.17391304347825) translate(0,34.78260869565217) rotate(0)" fill="#ad8a56" stroke="none" stroke-width="0" opacity="1" class="graphicObject11"></rect></g><g class="graphicObject12"><rect width="40" height="4.3478260869565215" transform="matrix(0.9999999999999999 0 0 -0.9999999999999999 578 502.17391304347825) translate(0,0) rotate(0)" fill="#c9b037" stroke="none" stroke-width="0" opacity="1" class="graphicObject11"></rect><rect width="40" height="13.043478260869565" transform="matrix(0.9999999999999999 0 0 -0.9999999999999999 578 502.17391304347825) translate(0,4.3478260869565215) rotate(0)" fill="#d7d7d7" stroke="none" stroke-width="0" opacity="1" class="graphicObject11"></rect><rect width="40" height="13.043478260869565" transform="matrix(0.9999999999999999 0 0 -0.9999999999999999 578 502.17391304347825) translate(0,17.391304347826086) rotate(0)" fill="#ad8a56" stroke="none" stroke-width="0" opacity="1" class="graphicObject11"></rect></g><g class="graphicObject12"><rect width="40" height="17.391304347826086" transform="matrix(0.9999999999999999 0 0 -0.9999999999999998 626 502.17391304347825) translate(0,0) rotate(0)" fill="#c9b037" stroke="none" stroke-width="0" opacity="1" class="graphicObject11"></rect><rect width="40" height="0" transform="matrix(0.9999999999999999 0 0 -0.9999999999999998 626 502.17391304347825) translate(0,17.391304347826086) rotate(0)" fill="#d7d7d7" stroke="none" stroke-width="0" opacity="1" class="graphicObject11"></rect><rect width="40" height="8.695652173913043" transform="matrix(0.9999999999999999 0 0 -0.9999999999999998 626 502.17391304347825) translate(0,17.391304347826086) rotate(0)" fill="#ad8a56" stroke="none" stroke-width="0" opacity="1" class="graphicObject11"></rect></g><g class="graphicObject12"><rect width="40" height="0" transform="matrix(0.9999999999999999 0 0 -0.9999999999999998 674 502.17391304347825) translate(0,0) rotate(0)" fill="#c9b037" stroke="none" stroke-width="0" opacity="1" class="graphicObject11"></rect><rect width="40" height="4.3478260869565215" transform="matrix(0.9999999999999999 0 0 -0.9999999999999998 674 502.17391304347825) translate(0,0) rotate(0)" fill="#d7d7d7" stroke="none" stroke-width="0" opacity="1" class="graphicObject11"></rect><rect width="40" height="8.695652173913043" transform="matrix(0.9999999999999999 0 0 -0.9999999999999998 674 502.17391304347825) translate(0,4.3478260869565215) rotate(0)" fill="#ad8a56" stroke="none" stroke-width="0" opacity="1" class="graphicObject11"></rect></g><g class="graphicObject12"><rect width="40" height="0" transform="matrix(1 0 0 -0.9999999999999999 722 502.17391304347825) translate(0,0) rotate(0)" fill="#c9b037" stroke="none" stroke-width="0" opacity="1" class="graphicObject11"></rect><rect width="40" height="8.695652173913043" transform="matrix(1 0 0 -0.9999999999999999 722 502.17391304347825) translate(0,0) rotate(0)" fill="#d7d7d7" stroke="none" stroke-width="0" opacity="1" class="graphicObject11"></rect><rect width="40" height="13.043478260869565" transform="matrix(1 0 0 -0.9999999999999999 722 502.17391304347825) translate(0,8.695652173913043) rotate(0)" fill="#ad8a56" stroke="none" stroke-width="0" opacity="1" class="graphicObject11"></rect></g><g class="graphicObject12"><rect width="40" height="4.3478260869565215" transform="matrix(0.9999999999999999 0 0 -0.9999999999999998 770 502.17391304347825) translate(0,0) rotate(0)" fill="#c9b037" stroke="none" stroke-width="0" opacity="1" class="graphicObject11"></rect><rect width="40" height="0" transform="matrix(0.9999999999999999 0 0 -0.9999999999999998 770 502.17391304347825) translate(0,4.3478260869565215) rotate(0)" fill="#d7d7d7" stroke="none" stroke-width="0" opacity="1" class="graphicObject11"></rect><rect width="40" height="0" transform="matrix(0.9999999999999999 0 0 -0.9999999999999998 770 502.17391304347825) translate(0,4.3478260869565215) rotate(0)" fill="#ad8a56" stroke="none" stroke-width="0" opacity="1" class="graphicObject11"></rect></g><g class="graphicObject12"><rect width="40" height="0" transform="matrix(0.9999999999999999 0 0 -0.9999999999999998 818 502.17391304347825) translate(0,0) rotate(0)" fill="#c9b037" stroke="none" stroke-width="0" opacity="1" class="graphicObject11"></rect><rect width="40" height="0" transform="matrix(0.9999999999999999 0 0 -0.9999999999999998 818 502.17391304347825) translate(0,0) rotate(0)" fill="#d7d7d7" stroke="none" stroke-width="0" opacity="1" class="graphicObject11"></rect><rect width="40" height="8.695652173913043" transform="matrix(0.9999999999999999 0 0 -0.9999999999999998 818 502.17391304347825) translate(0,0) rotate(0)" fill="#ad8a56" stroke="none" stroke-width="0" opacity="1" class="graphicObject11"></rect></g><g class="graphicObject12"><rect width="40" height="0" transform="matrix(0.9999999999999999 0 0 -0.9999999999999998 866 502.17391304347825) translate(0,0) rotate(0)" fill="#c9b037" stroke="none" stroke-width="0" opacity="1" class="graphicObject11"></rect><rect width="40" height="0" transform="matrix(0.9999999999999999 0 0 -0.9999999999999998 866 502.17391304347825) translate(0,0) rotate(0)" fill="#d7d7d7" stroke="none" stroke-width="0" opacity="1" class="graphicObject11"></rect><rect width="40" height="4.3478260869565215" transform="matrix(0.9999999999999999 0 0 -0.9999999999999998 866 502.17391304347825) translate(0,0) rotate(0)" fill="#ad8a56" stroke="none" stroke-width="0" opacity="1" class="graphicObject11"></rect></g><g class="graphicObject12"><rect width="40" height="0" transform="matrix(0.9999999999999999 0 0 -0.9999999999999998 914 502.17391304347825) translate(0,0) rotate(0)" fill="#c9b037" stroke="none" stroke-width="0" opacity="1" class="graphicObject11"></rect><rect width="40" height="4.3478260869565215" transform="matrix(0.9999999999999999 0 0 -0.9999999999999998 914 502.17391304347825) translate(0,0) rotate(0)" fill="#d7d7d7" stroke="none" stroke-width="0" opacity="1" class="graphicObject11"></rect><rect width="40" height="0" transform="matrix(0.9999999999999999 0 0 -0.9999999999999998 914 502.17391304347825) translate(0,4.3478260869565215) rotate(0)" fill="#ad8a56" stroke="none" stroke-width="0" opacity="1" class="graphicObject11"></rect></g><g class="graphicObject12"><rect width="40" height="4.3478260869565215" transform="matrix(0.9999999999999999 0 0 -0.9999999999999998 962 502.17391304347825) translate(0,0) rotate(0)" fill="#c9b037" stroke="none" stroke-width="0" opacity="1" class="graphicObject11"></rect><rect width="40" height="0" transform="matrix(0.9999999999999999 0 0 -0.9999999999999998 962 502.17391304347825) translate(0,4.3478260869565215) rotate(0)" fill="#d7d7d7" stroke="none" stroke-width="0" opacity="1" class="graphicObject11"></rect><rect width="40" height="0" transform="matrix(0.9999999999999999 0 0 -0.9999999999999998 962 502.17391304347825) translate(0,4.3478260869565215) rotate(0)" fill="#ad8a56" stroke="none" stroke-width="0" opacity="1" class="graphicObject11"></rect></g></g><g class="graphicObject14"><line x1="0" y1="-10" x2="912" y2="-9.999999999999945" transform="matrix(1 0 0 -1 70 502.17391304347825)" fill="none" stroke="#000" stroke-width="1" opacity="1" class="Axis"></line><g transform="matrix(1 0 0 -1 70 502.17391304347825) translate(0,-10) rotate(0) scale(1,-1)"><line stroke="#000" x1="0" x2="0" y1="0" y2="5"></line><text fill="#000" font-size="16" font-family="sans-serif" text-anchor="middle" font-weight="normal" x="0" y="27">USA</text></g><g transform="matrix(1 0 0 -1 70 502.17391304347825) translate(48,-9.999999999999996) rotate(0) scale(1,-1)"><line stroke="#000" x1="0" x2="0" y1="0" y2="5"></line><text fill="#000" font-size="16" font-family="sans-serif" text-anchor="middle" font-weight="normal" x="0" y="27">CHN</text></g><g transform="matrix(1 0 0 -1 70 502.17391304347825) translate(96,-9.999999999999995) rotate(0) scale(1,-1)"><line stroke="#000" x1="0" x2="0" y1="0" y2="5"></line><text fill="#000" font-size="16" font-family="sans-serif" text-anchor="middle" font-weight="normal" x="0" y="27">RUS</text></g><g transform="matrix(1 0 0 -1 70 502.17391304347825) translate(144,-9.999999999999991) rotate(0) scale(1,-1)"><line stroke="#000" x1="0" x2="0" y1="0" y2="5"></line><text fill="#000" font-size="16" font-family="sans-serif" text-anchor="middle" font-weight="normal" x="0" y="27">GBR</text></g><g transform="matrix(1 0 0 -1 70 502.17391304347825) translate(192,-9.999999999999988) rotate(0) scale(1,-1)"><line stroke="#000" x1="0" x2="0" y1="0" y2="5"></line><text fill="#000" font-size="16" font-family="sans-serif" text-anchor="middle" font-weight="normal" x="0" y="27">DEU</text></g><g transform="matrix(1 0 0 -1 70 502.17391304347825) translate(240,-9.999999999999986) rotate(0) scale(1,-1)"><line stroke="#000" x1="0" x2="0" y1="0" y2="5"></line><text fill="#000" font-size="16" font-family="sans-serif" text-anchor="middle" font-weight="normal" x="0" y="27">JPN</text></g><g transform="matrix(1 0 0 -1 70 502.17391304347825) translate(288,-9.999999999999982) rotate(0) scale(1,-1)"><line stroke="#000" x1="0" x2="0" y1="0" y2="5"></line><text fill="#000" font-size="16" font-family="sans-serif" text-anchor="middle" font-weight="normal" x="0" y="27">FRA</text></g><g transform="matrix(1 0 0 -1 70 502.17391304347825) translate(336,-9.99999999999998) rotate(0) scale(1,-1)"><line stroke="#000" x1="0" x2="0" y1="0" y2="5"></line><text fill="#000" font-size="16" font-family="sans-serif" text-anchor="middle" font-weight="normal" x="0" y="27">ITA</text></g><g transform="matrix(1 0 0 -1 70 502.17391304347825) translate(384,-9.999999999999977) rotate(0) scale(1,-1)"><line stroke="#000" x1="0" x2="0" y1="0" y2="5"></line><text fill="#000" font-size="16" font-family="sans-serif" text-anchor="middle" font-weight="normal" x="0" y="27">BRA</text></g><g transform="matrix(1 0 0 -1 70 502.17391304347825) translate(432,-9.999999999999973) rotate(0) scale(1,-1)"><line stroke="#000" x1="0" x2="0" y1="0" y2="5"></line><text fill="#000" font-size="16" font-family="sans-serif" text-anchor="middle" font-weight="normal" x="0" y="27">IND</text></g><g transform="matrix(1 0 0 -1 70 502.17391304347825) translate(480,-9.999999999999972) rotate(0) scale(1,-1)"><line stroke="#000" x1="0" x2="0" y1="0" y2="5"></line><text fill="#000" font-size="16" font-family="sans-serif" text-anchor="middle" font-weight="normal" x="0" y="27">JAM</text></g><g transform="matrix(1 0 0 -1 70 502.17391304347825) translate(528,-9.999999999999968) rotate(0) scale(1,-1)"><line stroke="#000" x1="0" x2="0" y1="0" y2="5"></line><text fill="#000" font-size="16" font-family="sans-serif" text-anchor="middle" font-weight="normal" x="0" y="27">GEO</text></g><g transform="matrix(1 0 0 -1 70 502.17391304347825) translate(576,-9.999999999999964) rotate(0) scale(1,-1)"><line stroke="#000" x1="0" x2="0" y1="0" y2="5"></line><text fill="#000" font-size="16" font-family="sans-serif" text-anchor="middle" font-weight="normal" x="0" y="27">PRK</text></g><g transform="matrix(1 0 0 -1 70 502.17391304347825) translate(624,-9.999999999999963) rotate(0) scale(1,-1)"><line stroke="#000" x1="0" x2="0" y1="0" y2="5"></line><text fill="#000" font-size="16" font-family="sans-serif" text-anchor="middle" font-weight="normal" x="0" y="27">ARM</text></g><g transform="matrix(1 0 0 -1 70 502.17391304347825) translate(672,-9.99999999999996) rotate(0) scale(1,-1)"><line stroke="#000" x1="0" x2="0" y1="0" y2="5"></line><text fill="#000" font-size="16" font-family="sans-serif" text-anchor="middle" font-weight="normal" x="0" y="27">MNG</text></g><g transform="matrix(1 0 0 -1 70 502.17391304347825) translate(720,-9.999999999999957) rotate(0) scale(1,-1)"><line stroke="#000" x1="0" x2="0" y1="0" y2="5"></line><text fill="#000" font-size="16" font-family="sans-serif" text-anchor="middle" font-weight="normal" x="0" y="27">BHS</text></g><g transform="matrix(1 0 0 -1 70 502.17391304347825) translate(768,-9.999999999999954) rotate(0) scale(1,-1)"><line stroke="#000" x1="0" x2="0" y1="0" y2="5"></line><text fill="#000" font-size="16" font-family="sans-serif" text-anchor="middle" font-weight="normal" x="0" y="27">MDA</text></g><g transform="matrix(1 0 0 -1 70 502.17391304347825) translate(816,-9.99999999999995) rotate(0) scale(1,-1)"><line stroke="#000" x1="0" x2="0" y1="0" y2="5"></line><text fill="#000" font-size="16" font-family="sans-serif" text-anchor="middle" font-weight="normal" x="0" y="27">TJK</text></g><g transform="matrix(1 0 0 -1 70 502.17391304347825) translate(864,-9.999999999999948) rotate(0) scale(1,-1)"><line stroke="#000" x1="0" x2="0" y1="0" y2="5"></line><text fill="#000" font-size="16" font-family="sans-serif" text-anchor="middle" font-weight="normal" x="0" y="27">MNE</text></g><g transform="matrix(1 0 0 -1 70 502.17391304347825) translate(912,-9.999999999999945) rotate(0) scale(1,-1)"><line stroke="#000" x1="0" x2="0" y1="0" y2="5"></line><text fill="#000" font-size="16" font-family="sans-serif" text-anchor="middle" font-weight="normal" x="0" y="27">GRD</text></g></g><g class="graphicObject15"><line x1="-20" y1="0" x2="-20" y2="200" transform="matrix(1 0 0 -1 70 502.17391304347825)" fill="none" stroke="#000" stroke-width="1" opacity="1" class="Axis"></line><g transform="matrix(1 0 0 -1 70 502.17391304347825) translate(-20,0) rotate(0) scale(1,-1)"><line stroke="#000" x1="0" x2="-5" y1="0" y2="0"></line><text fill="#000" font-size="16" font-family="sans-serif" text-anchor="end" font-weight="normal" x="-10" y="6.5">0</text></g><g transform="matrix(1 0 0 -1 70 502.17391304347825) translate(-20,86.95652173913044) rotate(0) scale(1,-1)"><line stroke="#000" x1="0" x2="-5" y1="0" y2="0"></line><text fill="#000" font-size="16" font-family="sans-serif" text-anchor="end" font-weight="normal" x="-10" y="6.5">20</text></g><g transform="matrix(1 0 0 -1 70 502.17391304347825) translate(-20,173.91304347826087) rotate(0) scale(1,-1)"><line stroke="#000" x1="0" x2="-5" y1="0" y2="0"></line><text fill="#000" font-size="16" font-family="sans-serif" text-anchor="end" font-weight="normal" x="-10" y="6.5">40</text></g></g></g></svg>